<svg xmlns="http://www.w3.org/2000/svg" viewBox="0 0 79 72"><defs><style>.cls-1{fill:#192932;}</style></defs><g id="Layer_2" data-name="Layer 2"><g id="Layer_1-2" data-name="Layer 1"><g id="Layer_2-2" data-name="Layer 2"><g id="Layer_1-2-2" data-name="Layer 1-2"><path class="cls-1" d="M28.8,52.3V69.9A2.18,2.18,0,0,0,30.9,72h46A2.18,2.18,0,0,0,79,69.9V2.1A2.14,2.14,0,0,0,76.82,0h-46a2.18,2.18,0,0,0-2.1,2.1V19.8a2.1,2.1,0,1,0,4.2,0h0V4.2H74.7V67.8H32.9V52.3a2.18,2.18,0,0,0-2.1-2.1,2,2,0,0,0-2,2Z"/><path class="cls-1" d="M0,37.7c0,.3,0,.5.1.6v.1h0c0,.2.2.3.3.5h0a.35.35,0,0,0,.1.2L17,56.2a2.18,2.18,0,0,0,3,0,2.08,2.08,0,0,0,.16-2.94l-.06-.06L7.1,39.8H53.9a2.1,2.1,0,1,0,0-4.2H7.2L20.3,22.1a2.09,2.09,0,0,0-.05-3l-.05,0a2,2,0,0,0-2.82-.18l-.18.18L.8,36a.11.11,0,0,0-.1.1c-.1,0-.1.1-.2.2s-.1.2-.2.3a.11.11,0,0,0-.1.1.41.41,0,0,0-.1.3.41.41,0,0,0-.1.3Z"/></g></g></g></g></svg>